<svg width="166" height="44" viewBox="0 0 166 44" fill="none" xmlns="http://www.w3.org/2000/svg">
<path d="M53.7539 27.4062C53.7539 27.0742 53.7148 26.7812 53.6367 26.5273C53.5586 26.2669 53.4219 26.0326 53.2266 25.8242C53.0312 25.6159 52.7578 25.4173 52.4062 25.2285C52.0547 25.0397 51.6087 24.8477 51.0684 24.6523C50.4824 24.444 49.9518 24.2129 49.4766 23.959C49.0013 23.6986 48.5944 23.4023 48.2559 23.0703C47.9238 22.7383 47.6667 22.3574 47.4844 21.9277C47.3021 21.498 47.2109 21.0065 47.2109 20.4531C47.2109 19.8997 47.3053 19.3887 47.4941 18.9199C47.6895 18.4512 47.9629 18.0443 48.3145 17.6992C48.6725 17.3477 49.1022 17.0742 49.6035 16.8789C50.1048 16.6836 50.6647 16.5859 51.2832 16.5859C52.2077 16.5859 52.9857 16.791 53.6172 17.2012C54.2552 17.6048 54.737 18.1354 55.0625 18.793C55.388 19.444 55.5508 20.1406 55.5508 20.8828H53.7539C53.7539 20.349 53.666 19.877 53.4902 19.4668C53.321 19.0501 53.054 18.7246 52.6895 18.4902C52.3314 18.2493 51.8626 18.1289 51.2832 18.1289C50.7624 18.1289 50.3327 18.2298 49.9941 18.4316C49.6621 18.6335 49.4147 18.9069 49.252 19.252C49.0957 19.597 49.0176 19.9909 49.0176 20.4336C49.0176 20.7331 49.0697 21.0065 49.1738 21.2539C49.278 21.4948 49.4375 21.7194 49.6523 21.9277C49.8737 22.1361 50.1471 22.3281 50.4727 22.5039C50.8047 22.6797 51.1953 22.849 51.6445 23.0117C52.3411 23.2396 52.9368 23.4935 53.4316 23.7734C53.9264 24.0534 54.3301 24.3691 54.6426 24.7207C54.9551 25.0658 55.1829 25.4596 55.3262 25.9023C55.4759 26.3385 55.5508 26.8333 55.5508 27.3867C55.5508 27.9661 55.4531 28.4902 55.2578 28.959C55.069 29.4277 54.7923 29.8281 54.4277 30.1602C54.0632 30.4922 53.6237 30.7493 53.1094 30.9316C52.5951 31.1074 52.0156 31.1953 51.3711 31.1953C50.8112 31.1953 50.2611 31.1042 49.7207 30.9219C49.1868 30.7396 48.7018 30.4661 48.2656 30.1016C47.8294 29.737 47.4811 29.2878 47.2207 28.7539C46.9603 28.2135 46.8301 27.5885 46.8301 26.8789H48.627C48.627 27.3672 48.6986 27.7871 48.8418 28.1387C48.985 28.4837 49.1836 28.7702 49.4375 28.998C49.6914 29.2259 49.9811 29.3952 50.3066 29.5059C50.6387 29.61 50.9935 29.6621 51.3711 29.6621C51.8919 29.6621 52.3281 29.571 52.6797 29.3887C53.0378 29.2064 53.3047 28.946 53.4805 28.6074C53.6628 28.2689 53.7539 27.8685 53.7539 27.4062ZM59.5254 20.4336V31H57.8066V20.4336H59.5254ZM57.709 17.6309C57.709 17.3379 57.7904 17.0905 57.9531 16.8887C58.1159 16.6868 58.36 16.5859 58.6855 16.5859C59.0111 16.5859 59.2552 16.6868 59.418 16.8887C59.5872 17.0905 59.6719 17.3379 59.6719 17.6309C59.6719 17.9108 59.5872 18.1517 59.418 18.3535C59.2552 18.5488 59.0111 18.6465 58.6855 18.6465C58.36 18.6465 58.1159 18.5488 57.9531 18.3535C57.7904 18.1517 57.709 17.9108 57.709 17.6309ZM63.9883 22.5332V31H62.2695V20.4336H63.8906L63.9883 22.5332ZM63.6367 25.3164L62.8359 25.2871C62.8294 24.5645 62.901 23.8971 63.0508 23.2852C63.2005 22.6667 63.4251 22.1296 63.7246 21.6738C64.0306 21.2181 64.4115 20.8665 64.8672 20.6191C65.3294 20.3652 65.8665 20.2383 66.4785 20.2383C66.8822 20.2383 67.2565 20.3099 67.6016 20.4531C67.9531 20.5898 68.2591 20.8079 68.5195 21.1074C68.7799 21.4069 68.9818 21.791 69.125 22.2598C69.2747 22.7285 69.3496 23.2949 69.3496 23.959V31H67.6211V24.0469C67.6211 23.4935 67.5462 23.0508 67.3965 22.7188C67.2533 22.3867 67.0482 22.1458 66.7812 21.9961C66.5143 21.8398 66.1953 21.7617 65.8242 21.7617C65.401 21.7617 65.0462 21.8561 64.7598 22.0449C64.4798 22.2337 64.2552 22.4941 64.0859 22.8262C63.9232 23.1582 63.806 23.5391 63.7344 23.9688C63.6693 24.3919 63.6367 24.8411 63.6367 25.3164ZM69.3301 24.3203L68.1777 24.6914C68.1712 24.112 68.2428 23.5553 68.3926 23.0215C68.5423 22.4876 68.7637 22.0124 69.0566 21.5957C69.3561 21.179 69.7272 20.8503 70.1699 20.6094C70.6126 20.362 71.127 20.2383 71.7129 20.2383C72.1947 20.2383 72.6211 20.3132 72.9922 20.4629C73.3633 20.6126 73.6758 20.8438 73.9297 21.1562C74.1901 21.4622 74.3854 21.8561 74.5156 22.3379C74.6458 22.8197 74.7109 23.3926 74.7109 24.0566V31H72.9824V24.0371C72.9824 23.4447 72.9076 22.9857 72.7578 22.6602C72.6146 22.3281 72.4095 22.097 72.1426 21.9668C71.8757 21.8301 71.5566 21.7617 71.1855 21.7617C70.8861 21.7617 70.6191 21.8301 70.3848 21.9668C70.1569 22.1035 69.9648 22.2923 69.8086 22.5332C69.6523 22.7676 69.5319 23.0378 69.4473 23.3438C69.3691 23.6497 69.3301 23.9753 69.3301 24.3203ZM79.0469 22.4648V35.0625H77.3184V20.4336H78.8906L79.0469 22.4648ZM84.9551 25.2383V26.2246C84.9551 27.0579 84.877 27.7871 84.7207 28.4121C84.571 29.0306 84.3464 29.5482 84.0469 29.9648C83.7539 30.375 83.3926 30.6842 82.9629 30.8926C82.5332 31.0944 82.0417 31.1953 81.4883 31.1953C80.9349 31.1953 80.4531 31.0911 80.043 30.8828C79.6393 30.668 79.2975 30.3587 79.0176 29.9551C78.7441 29.5514 78.526 29.0664 78.3633 28.5C78.207 27.9271 78.0996 27.2858 78.041 26.5762V25.0723C78.0996 24.3236 78.207 23.653 78.3633 23.0605C78.5195 22.4616 78.7344 21.9538 79.0078 21.5371C79.2878 21.1139 79.6296 20.7917 80.0332 20.5703C80.4434 20.349 80.9219 20.2383 81.4688 20.2383C82.0352 20.2383 82.5332 20.3359 82.9629 20.5312C83.3991 20.7266 83.7637 21.0293 84.0566 21.4395C84.3561 21.8431 84.5807 22.3607 84.7305 22.9922C84.8802 23.6172 84.9551 24.3659 84.9551 25.2383ZM83.2266 26.2246V25.2383C83.2266 24.6523 83.181 24.1413 83.0898 23.7051C83.0052 23.2689 82.8685 22.9076 82.6797 22.6211C82.4909 22.3346 82.2533 22.1198 81.9668 21.9766C81.6803 21.8333 81.3353 21.7617 80.9316 21.7617C80.5866 21.7617 80.2806 21.8333 80.0137 21.9766C79.7533 22.1198 79.5286 22.3151 79.3398 22.5625C79.151 22.8034 78.9948 23.0801 78.8711 23.3926C78.7474 23.6986 78.6562 24.0176 78.5977 24.3496V27.3086C78.7083 27.7253 78.8548 28.1191 79.0371 28.4902C79.2194 28.8548 79.4635 29.151 79.7695 29.3789C80.082 29.6068 80.4759 29.7207 80.9512 29.7207C81.3483 29.7207 81.6901 29.6491 81.9766 29.5059C82.263 29.3626 82.4974 29.1478 82.6797 28.8613C82.8685 28.5684 83.0052 28.2038 83.0898 27.7676C83.181 27.3249 83.2266 26.8105 83.2266 26.2246ZM89.0371 16V31H87.3184V16H89.0371ZM95.5508 31.1953C94.9193 31.1953 94.3496 31.1009 93.8418 30.9121C93.334 30.7233 92.901 30.4368 92.543 30.0527C92.1849 29.6621 91.9115 29.1706 91.7227 28.5781C91.5339 27.9857 91.4395 27.2858 91.4395 26.4785V25.2871C91.4395 24.3561 91.5469 23.5684 91.7617 22.9238C91.9831 22.2793 92.2793 21.7617 92.6504 21.3711C93.0215 20.974 93.4414 20.6875 93.9102 20.5117C94.3789 20.3294 94.8607 20.2383 95.3555 20.2383C96.0195 20.2383 96.5859 20.3457 97.0547 20.5605C97.5234 20.7754 97.9043 21.0944 98.1973 21.5176C98.4902 21.9408 98.7051 22.4616 98.8418 23.0801C98.985 23.6986 99.0566 24.4115 99.0566 25.2188V26.2246H92.4551V24.75H97.3281V24.5059C97.3021 23.959 97.2272 23.4772 97.1035 23.0605C96.9863 22.6439 96.791 22.3184 96.5176 22.084C96.2441 21.8431 95.8568 21.7227 95.3555 21.7227C95.0365 21.7227 94.7402 21.778 94.4668 21.8887C94.1999 21.9928 93.9688 22.1784 93.7734 22.4453C93.5846 22.7057 93.4349 23.0671 93.3242 23.5293C93.2201 23.9915 93.168 24.5775 93.168 25.2871V26.4785C93.168 27.0449 93.2201 27.5332 93.3242 27.9434C93.4349 28.347 93.5944 28.6823 93.8027 28.9492C94.0176 29.2096 94.278 29.4049 94.584 29.5352C94.8965 29.6589 95.2513 29.7207 95.6484 29.7207C96.2279 29.7207 96.7064 29.61 97.084 29.3887C97.4616 29.1608 97.7904 28.8711 98.0703 28.5195L98.9785 29.6035C98.7897 29.8704 98.5423 30.1276 98.2363 30.375C97.9368 30.6159 97.5658 30.8145 97.123 30.9707C96.6868 31.1204 96.1628 31.1953 95.5508 31.1953ZM105.98 16.7812H109.955C110.88 16.7812 111.654 16.944 112.279 17.2695C112.911 17.5951 113.386 18.0768 113.705 18.7148C114.031 19.3464 114.193 20.1243 114.193 21.0488C114.193 21.6999 114.086 22.2956 113.871 22.8359C113.656 23.3698 113.344 23.8255 112.934 24.2031C112.523 24.5742 112.025 24.8509 111.439 25.0332L110.951 25.2383H107.406L107.387 23.7051H109.936C110.482 23.7051 110.938 23.5879 111.303 23.3535C111.667 23.1126 111.941 22.7904 112.123 22.3867C112.305 21.9831 112.396 21.5371 112.396 21.0488C112.396 20.502 112.315 20.0234 112.152 19.6133C111.99 19.2031 111.729 18.8874 111.371 18.666C111.02 18.4382 110.548 18.3242 109.955 18.3242H107.777V31H105.98V16.7812ZM112.807 31L109.975 24.5547L111.84 24.5449L114.73 30.8828V31H112.807ZM120.141 31.1953C119.509 31.1953 118.939 31.1009 118.432 30.9121C117.924 30.7233 117.491 30.4368 117.133 30.0527C116.775 29.6621 116.501 29.1706 116.312 28.5781C116.124 27.9857 116.029 27.2858 116.029 26.4785V25.2871C116.029 24.3561 116.137 23.5684 116.352 22.9238C116.573 22.2793 116.869 21.7617 117.24 21.3711C117.611 20.974 118.031 20.6875 118.5 20.5117C118.969 20.3294 119.451 20.2383 119.945 20.2383C120.609 20.2383 121.176 20.3457 121.645 20.5605C122.113 20.7754 122.494 21.0944 122.787 21.5176C123.08 21.9408 123.295 22.4616 123.432 23.0801C123.575 23.6986 123.646 24.4115 123.646 25.2188V26.2246H117.045V24.75H121.918V24.5059C121.892 23.959 121.817 23.4772 121.693 23.0605C121.576 22.6439 121.381 22.3184 121.107 22.084C120.834 21.8431 120.447 21.7227 119.945 21.7227C119.626 21.7227 119.33 21.778 119.057 21.8887C118.79 21.9928 118.559 22.1784 118.363 22.4453C118.174 22.7057 118.025 23.0671 117.914 23.5293C117.81 23.9915 117.758 24.5775 117.758 25.2871V26.4785C117.758 27.0449 117.81 27.5332 117.914 27.9434C118.025 28.347 118.184 28.6823 118.393 28.9492C118.607 29.2096 118.868 29.4049 119.174 29.5352C119.486 29.6589 119.841 29.7207 120.238 29.7207C120.818 29.7207 121.296 29.61 121.674 29.3887C122.051 29.1608 122.38 28.8711 122.66 28.5195L123.568 29.6035C123.38 29.8704 123.132 30.1276 122.826 30.375C122.527 30.6159 122.156 30.8145 121.713 30.9707C121.277 31.1204 120.753 31.1953 120.141 31.1953ZM127.465 22.4648V35.0625H125.736V20.4336H127.309L127.465 22.4648ZM133.373 25.2383V26.2246C133.373 27.0579 133.295 27.7871 133.139 28.4121C132.989 29.0306 132.764 29.5482 132.465 29.9648C132.172 30.375 131.811 30.6842 131.381 30.8926C130.951 31.0944 130.46 31.1953 129.906 31.1953C129.353 31.1953 128.871 31.0911 128.461 30.8828C128.057 30.668 127.715 30.3587 127.436 29.9551C127.162 29.5514 126.944 29.0664 126.781 28.5C126.625 27.9271 126.518 27.2858 126.459 26.5762V25.0723C126.518 24.3236 126.625 23.653 126.781 23.0605C126.938 22.4616 127.152 21.9538 127.426 21.5371C127.706 21.1139 128.048 20.7917 128.451 20.5703C128.861 20.349 129.34 20.2383 129.887 20.2383C130.453 20.2383 130.951 20.3359 131.381 20.5312C131.817 20.7266 132.182 21.0293 132.475 21.4395C132.774 21.8431 132.999 22.3607 133.148 22.9922C133.298 23.6172 133.373 24.3659 133.373 25.2383ZM131.645 26.2246V25.2383C131.645 24.6523 131.599 24.1413 131.508 23.7051C131.423 23.2689 131.286 22.9076 131.098 22.6211C130.909 22.3346 130.671 22.1198 130.385 21.9766C130.098 21.8333 129.753 21.7617 129.35 21.7617C129.005 21.7617 128.699 21.8333 128.432 21.9766C128.171 22.1198 127.947 22.3151 127.758 22.5625C127.569 22.8034 127.413 23.0801 127.289 23.3926C127.165 23.6986 127.074 24.0176 127.016 24.3496V27.3086C127.126 27.7253 127.273 28.1191 127.455 28.4902C127.637 28.8548 127.882 29.151 128.188 29.3789C128.5 29.6068 128.894 29.7207 129.369 29.7207C129.766 29.7207 130.108 29.6491 130.395 29.5059C130.681 29.3626 130.915 29.1478 131.098 28.8613C131.286 28.5684 131.423 28.2038 131.508 27.7676C131.599 27.3249 131.645 26.8105 131.645 26.2246ZM135.238 26.2246V25.2188C135.238 24.3984 135.342 23.679 135.551 23.0605C135.759 22.4355 136.049 21.9147 136.42 21.498C136.791 21.0814 137.224 20.7689 137.719 20.5605C138.214 20.3457 138.744 20.2383 139.311 20.2383C139.89 20.2383 140.427 20.3457 140.922 20.5605C141.417 20.7689 141.85 21.0814 142.221 21.498C142.598 21.9147 142.891 22.4355 143.1 23.0605C143.308 23.679 143.412 24.3984 143.412 25.2188V26.2246C143.412 27.0449 143.308 27.7676 143.1 28.3926C142.891 29.0111 142.602 29.5286 142.23 29.9453C141.859 30.362 141.426 30.6745 140.932 30.8828C140.437 31.0911 139.903 31.1953 139.33 31.1953C138.757 31.1953 138.223 31.0911 137.729 30.8828C137.234 30.6745 136.798 30.362 136.42 29.9453C136.049 29.5286 135.759 29.0111 135.551 28.3926C135.342 27.7676 135.238 27.0449 135.238 26.2246ZM136.967 25.2188V26.2246C136.967 26.804 137.025 27.3118 137.143 27.748C137.26 28.1842 137.426 28.5488 137.641 28.8418C137.855 29.1348 138.106 29.3561 138.393 29.5059C138.679 29.6491 138.992 29.7207 139.33 29.7207C139.721 29.7207 140.062 29.6491 140.355 29.5059C140.655 29.3561 140.902 29.1348 141.098 28.8418C141.293 28.5488 141.439 28.1842 141.537 27.748C141.635 27.3118 141.684 26.804 141.684 26.2246V25.2188C141.684 24.6393 141.625 24.1348 141.508 23.7051C141.391 23.2689 141.225 22.9043 141.01 22.6113C140.795 22.3118 140.541 22.0905 140.248 21.9473C139.962 21.7975 139.649 21.7227 139.311 21.7227C138.979 21.7227 138.669 21.7975 138.383 21.9473C138.096 22.0905 137.846 22.3118 137.631 22.6113C137.423 22.9043 137.26 23.2689 137.143 23.7051C137.025 24.1348 136.967 24.6393 136.967 25.2188ZM147.367 22.0938V31H145.639V20.4336H147.309L147.367 22.0938ZM149.994 20.375L150.004 22.0547C149.861 22.0221 149.73 22.0026 149.613 21.9961C149.503 21.9831 149.372 21.9766 149.223 21.9766C148.897 21.9766 148.611 22.0417 148.363 22.1719C148.122 22.3021 147.914 22.4844 147.738 22.7188C147.562 22.9531 147.423 23.2331 147.318 23.5586C147.214 23.8776 147.143 24.2292 147.104 24.6133L146.654 24.9062C146.654 24.2682 146.703 23.6693 146.801 23.1094C146.905 22.5495 147.064 22.0547 147.279 21.625C147.494 21.1888 147.768 20.8503 148.1 20.6094C148.438 20.362 148.842 20.2383 149.311 20.2383C149.415 20.2383 149.542 20.2546 149.691 20.2871C149.848 20.3132 149.949 20.3424 149.994 20.375ZM156.078 20.4336V21.8203H151.146V20.4336H156.078ZM152.758 17.8652H154.486V28.3828C154.486 28.7409 154.529 29.0111 154.613 29.1934C154.704 29.3757 154.818 29.4961 154.955 29.5547C155.092 29.6133 155.238 29.6426 155.395 29.6426C155.512 29.6426 155.642 29.6296 155.785 29.6035C155.928 29.571 156.026 29.5449 156.078 29.5254L156.068 31C155.951 31.0456 155.795 31.0879 155.6 31.127C155.404 31.1725 155.157 31.1953 154.857 31.1953C154.486 31.1953 154.141 31.1074 153.822 30.9316C153.503 30.7559 153.246 30.4629 153.051 30.0527C152.855 29.6361 152.758 29.0762 152.758 28.373V17.8652ZM163.266 28.2949C163.266 28.028 163.201 27.7936 163.07 27.5918C162.94 27.39 162.725 27.1947 162.426 27.0059C162.133 26.8171 161.736 26.6152 161.234 26.4004C160.746 26.1986 160.307 26 159.916 25.8047C159.532 25.6029 159.206 25.3848 158.939 25.1504C158.673 24.916 158.467 24.6458 158.324 24.3398C158.188 24.0273 158.119 23.6595 158.119 23.2363C158.119 22.8132 158.197 22.4225 158.354 22.0645C158.516 21.6999 158.744 21.3809 159.037 21.1074C159.33 20.834 159.682 20.6224 160.092 20.4727C160.502 20.3164 160.961 20.2383 161.469 20.2383C162.191 20.2383 162.807 20.3783 163.314 20.6582C163.822 20.9382 164.21 21.3223 164.477 21.8105C164.75 22.2923 164.887 22.8359 164.887 23.4414H163.168C163.168 23.1484 163.103 22.8717 162.973 22.6113C162.842 22.3509 162.65 22.1393 162.396 21.9766C162.143 21.8073 161.833 21.7227 161.469 21.7227C161.085 21.7227 160.772 21.791 160.531 21.9277C160.29 22.0645 160.115 22.2435 160.004 22.4648C159.9 22.6797 159.848 22.9173 159.848 23.1777C159.848 23.373 159.874 23.5423 159.926 23.6855C159.984 23.8223 160.082 23.9525 160.219 24.0762C160.355 24.1934 160.541 24.3171 160.775 24.4473C161.016 24.571 161.322 24.7142 161.693 24.877C162.41 25.1569 163.012 25.4401 163.5 25.7266C163.988 26.013 164.359 26.3483 164.613 26.7324C164.867 27.1165 164.994 27.5918 164.994 28.1582C164.994 28.6204 164.91 29.0404 164.74 29.418C164.577 29.7891 164.343 30.1081 164.037 30.375C163.731 30.6419 163.363 30.847 162.934 30.9902C162.51 31.127 162.035 31.1953 161.508 31.1953C160.714 31.1953 160.04 31.0391 159.486 30.7266C158.939 30.4076 158.523 29.9941 158.236 29.4863C157.956 28.972 157.816 28.4219 157.816 27.8359H159.545C159.564 28.3307 159.675 28.7148 159.877 28.9883C160.085 29.2617 160.336 29.4505 160.629 29.5547C160.922 29.6589 161.215 29.7109 161.508 29.7109C161.892 29.7109 162.214 29.6556 162.475 29.5449C162.735 29.4277 162.93 29.2617 163.061 29.0469C163.197 28.832 163.266 28.5814 163.266 28.2949Z" fill="#444444"/>
<path d="M9.99967 27.3333H4.99967C4.0792 27.3333 3.33301 28.0795 3.33301 29V34C3.33301 34.9205 4.0792 35.6666 4.99967 35.6666H9.99967C10.9201 35.6666 11.6663 34.9205 11.6663 34V29C11.6663 28.0795 10.9201 27.3333 9.99967 27.3333Z" fill="url(#paint0_linear_114_1144)"/>
<path d="M21.6667 17.3333H16.6667C16.2246 17.3333 15.8007 17.5089 15.4882 17.8215C15.1756 18.134 15 18.558 15 19V34C15 34.442 15.1756 34.8659 15.4882 35.1785C15.8007 35.4911 16.2246 35.6666 16.6667 35.6666H21.6667C22.1087 35.6666 22.5326 35.4911 22.8452 35.1785C23.1577 34.8659 23.3333 34.442 23.3333 34V19C23.3333 18.558 23.1577 18.134 22.8452 17.8215C22.5326 17.5089 22.1087 17.3333 21.6667 17.3333ZM21.6667 34H16.6667V19H21.6667V34Z" fill="url(#paint1_linear_114_1144)"/>
<path d="M33.3327 7.33331H28.3327C27.8907 7.33331 27.4667 7.50891 27.1542 7.82147C26.8416 8.13403 26.666 8.55795 26.666 8.99998V34C26.666 34.442 26.8416 34.8659 27.1542 35.1785C27.4667 35.4911 27.8907 35.6666 28.3327 35.6666H33.3327C33.7747 35.6666 34.1986 35.4911 34.5112 35.1785C34.8238 34.8659 34.9993 34.442 34.9993 34V8.99998C34.9993 8.55795 34.8238 8.13403 34.5112 7.82147C34.1986 7.50891 33.7747 7.33331 33.3327 7.33331ZM33 34H28.5V21.5V9L31 8.99998H33V21.5V34Z" fill="url(#paint2_linear_114_1144)"/>
<defs>
<linearGradient id="paint0_linear_114_1144" x1="3.19967" y1="31.5" x2="37.383" y2="31.5" gradientUnits="userSpaceOnUse">
<stop stop-color="#7F00FF"/>
<stop offset="1" stop-color="#E100FF"/>
</linearGradient>
<linearGradient id="paint1_linear_114_1144" x1="3.2" y1="26.5" x2="37.3833" y2="26.5" gradientUnits="userSpaceOnUse">
<stop stop-color="#7F00FF"/>
<stop offset="1" stop-color="#E100FF"/>
</linearGradient>
<linearGradient id="paint2_linear_114_1144" x1="3.19935" y1="21.5" x2="37.3827" y2="21.5" gradientUnits="userSpaceOnUse">
<stop stop-color="#7F00FF"/>
<stop offset="1" stop-color="#E100FF"/>
</linearGradient>
</defs>
</svg>
