<svg width="16" height="14" viewBox="0 0 16 14" fill="none" xmlns="http://www.w3.org/2000/svg">
<path d="M8.00022 3.52778C9.91688 3.52778 11.4724 5.08333 11.4724 7C11.4724 7.45139 11.3822 7.875 11.2224 8.27083L13.2502 10.2986C14.2988 9.42361 15.1252 8.29167 15.6322 7C14.4308 3.95139 11.4655 1.79167 7.99327 1.79167C7.02105 1.79167 6.0905 1.96528 5.22938 2.27778L6.72938 3.77778C7.12522 3.61806 7.54883 3.52778 8.00022 3.52778ZM1.05577 1.63194L2.63911 3.21528L2.95855 3.53472C1.80577 4.43056 0.902995 5.625 0.361328 7C1.56272 10.0486 4.528 12.2083 8.00022 12.2083C9.07661 12.2083 10.1044 12 11.0419 11.625L11.3336 11.9167L13.3683 13.9444L14.2502 13.0625L1.93772 0.75L1.05577 1.63194ZM4.89605 5.47222L5.97244 6.54861C5.93772 6.69445 5.91688 6.84722 5.91688 7C5.91688 8.15278 6.84744 9.08333 8.00022 9.08333C8.153 9.08333 8.30577 9.0625 8.45161 9.02778L9.528 10.1042C9.06272 10.3333 8.54883 10.4722 8.00022 10.4722C6.08355 10.4722 4.528 8.91667 4.528 7C4.528 6.45139 4.66688 5.9375 4.89605 5.47222ZM7.88911 4.93056L10.0766 7.11806L10.0905 7.00695C10.0905 5.85417 9.15994 4.92361 8.00716 4.92361L7.88911 4.93056Z" fill="black" fill-opacity="0.54"/>
</svg>
